# xmcd
#
# Track frame offsets: 
#        150
#        16702
#        34832
#        52564
#        69087
#        85517
#        101257
#        119277
#        135750
#        150667
#
# Disc length: 2275 seconds
#
# Revision: 2
# Processed by: cddbd v1.5.2PL0 Copyright (c) Steve Scherf et al.
# Submitted via: ExactAudioCopy v0.95b4
#
DISCID=5b08e10a
DTITLE=Andrej Sifrer - Sedem irskih noci
DYEAR=1994
DGENRE=Country
TTITLE0=Sedem pijanih noci
TTITLE1="Rock me" Janez
TTITLE2=Najstarejsi dojencek na svetu
TTITLE3=Na zdravje nasih zena
TTITLE4=A jaz izgubljam
TTITLE5=Samo se tebe imam
TTITLE6=Kdo molze tvoje solze
TTITLE7=Malokdaj se srecava
TTITLE8=Fantje moji, ni problema
TTITLE9=Brazgotine srca
EXTD=
EXTT0=
EXTT1=
EXTT2=
EXTT3=
EXTT4=
EXTT5=
EXTT6=
EXTT7=
EXTT8=
EXTT9=
PLAYORDER=
